# Blender v2.71 (sub 0) OBJ File: ''
# www.blender.org
mtllib cornellbox_empty3.mtl
o Wall1_Cube.002
v 1.000000 -1.000000 -1.500000
v 1.000000 -1.000000 1.500000
v 1.000000 1.000000 1.500000
v 1.000000 1.000000 -1.500000
vn -1.000000 0.000000 0.000000
usemtl mat_diff_blue
s off
f 1//1 2//1 3//1
f 4//1 1//1 3//1
o Wall0_Cube.001
v -1.000000 -1.000000 1.500000
v -1.000000 -1.000000 -1.500000
v -1.000000 1.000000 -1.500000
v -1.000000 1.000000 1.500000
vn 1.000000 0.000000 0.000000
usemtl mat_diff_red
s off
f 5//2 6//2 7//2
f 8//2 5//2 7//2
o Box_Cube
v -1.000000 -1.000000 -1.500000
v 1.000000 -1.000000 -1.500000
v 1.000000 -1.000000 1.500000
v -1.000000 -1.000000 1.500000
v -1.000000 1.000000 1.500000
v 0.000000 1.000000 -1.499791
v 0.250000 1.000000 -1.499791
v 0.250000 1.000000 -1.124899
v 1.000000 1.000000 1.500000
v 0.250000 1.000000 0.374669
v 0.250000 1.250000 0.187223
v 0.500000 1.000000 0.374669
v -0.125000 1.000000 -0.375115
v 0.000000 1.000000 -0.375115
v 0.000000 1.250000 -0.187669
v 0.500000 1.000000 -1.499791
v 0.500000 1.000000 -1.124899
v -0.750000 1.000000 -0.000223
v -0.750000 1.000000 0.374669
v -1.000000 1.000000 0.374669
v -0.250000 1.000000 1.124453
v -0.250000 1.000000 0.749561
v 0.000000 1.000000 0.749561
v -0.500000 1.000000 -1.499791
v -0.250000 1.000000 -1.499791
v -0.250000 1.000000 -1.124899
v 0.000000 1.000000 -0.750007
v 0.500000 1.000000 -0.750007
v 0.750000 1.000000 -0.750007
v 0.750000 1.000000 -0.375115
v 0.000000 1.000000 -1.124899
v -0.750000 1.000000 0.749561
v -0.750000 1.000000 1.124453
v -1.000000 1.000000 1.124453
v -0.500000 1.000000 0.749561
v 1.000000 1.000000 0.374669
v 1.000000 1.000000 0.749561
v 0.750000 1.000000 0.749561
v 1.000000 1.000000 1.124453
v 0.750000 1.000000 1.124453
v -0.750000 1.000000 -1.124899
v -0.500000 1.000000 -1.124899
v -0.500000 1.000000 -0.750007
v 1.000000 1.000000 -0.000223
v 0.750000 1.000000 0.374669
v 0.250000 1.000000 -0.750007
v 0.250000 1.000000 -0.375115
v 0.125000 1.000000 -0.375115
v 1.000000 1.000000 -1.124899
v 1.000000 1.000000 -0.750007
v 1.000000 1.000000 -0.375115
v 1.000000 1.000000 -1.499791
v 0.750000 1.000000 -1.124899
v 0.250000 1.000000 0.749561
v 0.250000 1.000000 1.124453
v 0.000000 1.000000 1.124453
v 0.500000 1.000000 0.749561
v -0.250000 1.000000 0.374669
v -0.125000 1.000000 0.374669
v -0.250000 1.250000 0.187223
v -0.250000 1.250000 -0.000223
v -0.125000 1.250000 -0.000223
v -0.750000 1.000000 -0.375115
v -0.500000 1.000000 -0.375115
v -0.500000 1.000000 -0.000223
v -0.750000 1.000000 -0.750007
v -0.750000 1.000000 1.499345
v -1.000000 1.000000 1.499345
v 0.500000 1.000000 -0.000223
v 0.750000 1.000000 -0.000223
v -0.250000 1.000000 -0.750007
v -0.250000 1.000000 -0.375115
v 0.250000 1.250000 -0.187669
v 0.250000 1.250000 -0.000223
v 0.125000 1.250000 -0.000223
v 0.750000 1.000000 -1.499791
v -0.500000 1.000000 0.374669
v 0.250000 1.000000 1.499345
v 0.000000 1.000000 1.499345
v -1.000000 1.000000 -0.000223
v -0.500000 1.000000 1.124453
v -0.500000 1.000000 1.499345
v -0.250000 1.000000 1.499345
v -1.000000 1.000000 0.749561
v -1.000000 1.000000 -1.499791
v -0.750000 1.000000 -1.499791
v 0.500000 1.000000 -0.375115
v 0.500000 1.000000 1.124453
v 0.500000 1.000000 1.499345
v 0.750000 1.000000 1.499345
v 0.125000 1.000000 0.374669
v -1.000000 1.000000 -0.375115
v -0.250000 1.250000 -0.187669
v -1.000000 1.000000 -0.750007
v 1.000000 1.000000 1.499345
v -0.125000 1.250000 -0.187669
v 0.000000 1.250000 -0.000223
v -0.125000 1.250000 0.187223
v 0.000000 1.250000 0.187223
v 0.125000 1.250000 -0.187669
v 0.125000 1.250000 0.187223
v 0.000000 1.000000 0.374669
v -1.000000 1.000000 -1.124899
vn 0.000000 0.000000 -1.000000
vn 0.000000 1.000000 0.000000
vn 0.000000 -1.000000 0.000000
vn 0.000000 -0.599900 -0.800100
vn 0.000000 -0.599900 0.800100
vn 0.707100 -0.707100 0.000000
vn -0.707100 -0.707100 0.000000
usemtl mat_diff_white
s off
f 11//3 12//3 13//3
f 10//4 9//4 11//4
f 14//5 15//5 16//5
f 17//3 11//3 13//3
f 11//4 9//4 12//4
f 18//6 19//6 20//6
f 21//7 22//7 23//7
f 24//5 25//5 16//5
f 26//5 27//5 28//5
f 29//5 30//5 31//5
f 32//5 33//5 34//5
f 35//5 22//5 21//5
f 36//5 37//5 38//5
f 14//5 39//5 34//5
f 40//5 41//5 42//5
f 41//5 40//5 43//5
f 44//5 45//5 46//5
f 45//5 47//5 48//5
f 49//5 50//5 51//5
f 52//5 44//5 53//5
f 54//5 55//5 56//5
f 55//5 54//5 36//5
f 57//5 58//5 37//5
f 58//5 59//5 38//5
f 43//5 30//5 29//5
f 60//5 57//5 61//5
f 62//5 63//5 64//5
f 63//5 62//5 65//5
f 30//5 66//5 67//5
f 68//5 69//5 70//5
f 71//5 72//5 73//5
f 18//5 20//5 65//5
f 71//5 74//5 51//5
f 32//5 50//5 49//5
f 16//5 25//5 36//5
f 41//5 75//5 76//5
f 77//5 78//5 53//5
f 51//5 79//5 80//5
f 81//5 82//5 83//5
f 24//5 84//5 61//5
f 27//5 85//5 43//5
f 63//5 86//5 87//5
f 69//8 68//8 73//8
f 71//5 26//5 88//5
f 39//5 35//5 79//5
f 65//5 46//5 48//5
f 59//5 52//5 78//5
f 34//5 79//5 51//5
f 41//5 89//5 90//5
f 29//5 91//5 90//5
f 27//5 40//5 92//5
f 83//5 82//5 19//5
f 93//5 94//5 49//5
f 53//5 46//5 65//5
f 81//7 55//7 95//7
f 38//5 78//5 77//5
f 29//5 64//5 87//5
f 16//5 54//5 35//5
f 61//5 37//5 36//5
f 63//5 96//5 97//5
f 48//5 98//5 97//5
f 99//5 18//5 62//5
f 43//5 85//5 66//5
f 74//5 71//5 100//5
f 27//5 26//5 73//5
f 69//8 73//8 101//8
f 49//5 74//5 102//5
f 48//5 47//5 103//5
f 104//5 23//5 105//5
f 101//5 104//5 70//5
f 80//7 21//7 104//7
f 106//5 70//5 105//5
f 67//6 106//6 107//6
f 66//6 68//6 106//6
f 108//5 83//5 105//5
f 56//7 108//7 23//7
f 55//7 81//7 108//7
f 109//6 19//6 18//6
f 107//6 109//6 99//6
f 105//5 83//5 109//5
f 39//5 14//5 16//5
f 19//9 82//9 77//9
f 104//7 21//7 23//7
f 15//5 24//5 16//5
f 19//9 77//9 20//9
f 88//5 26//5 28//5
f 64//5 29//5 31//5
f 50//5 32//5 34//5
f 35//5 21//5 79//5
f 95//5 36//5 38//5
f 33//5 14//5 34//5
f 21//5 80//5 79//5
f 92//5 40//5 42//5
f 89//5 41//5 43//5
f 53//5 44//5 46//5
f 46//5 45//5 48//5
f 74//5 49//5 51//5
f 78//5 52//5 53//5
f 54//5 56//5 35//5
f 95//5 55//5 36//5
f 61//5 57//5 37//5
f 56//5 22//5 35//5
f 37//5 58//5 38//5
f 89//5 43//5 29//5
f 84//5 60//5 61//5
f 31//5 62//5 64//5
f 96//5 63//5 65//5
f 30//5 67//5 31//5
f 106//5 68//5 70//5
f 26//5 71//5 73//5
f 67//5 110//5 31//5
f 62//5 18//5 65//5
f 72//5 71//5 51//5
f 94//5 32//5 49//5
f 54//5 16//5 36//5
f 42//5 41//5 76//5
f 20//5 77//5 53//5
f 72//5 51//5 80//5
f 108//5 81//5 83//5
f 25//5 24//5 61//5
f 40//5 27//5 43//5
f 64//5 63//5 87//5
f 68//6 66//6 85//6
f 100//5 71//5 88//5
f 34//5 39//5 79//5
f 68//8 85//8 73//8
f 96//5 65//5 48//5
f 38//5 59//5 78//5
f 50//5 34//5 51//5
f 75//5 41//5 90//5
f 89//5 29//5 90//5
f 28//5 27//5 92//5
f 109//5 83//5 19//5
f 111//5 93//5 49//5
f 20//5 53//5 65//5
f 77//9 82//9 81//9
f 95//5 38//5 77//5
f 81//9 95//9 77//9
f 91//5 29//5 87//5
f 39//5 16//5 35//5
f 25//5 61//5 36//5
f 86//5 63//5 97//5
f 96//5 48//5 97//5
f 31//5 110//5 99//5
f 30//5 43//5 66//5
f 99//5 62//5 31//5
f 102//5 74//5 100//5
f 85//5 27//5 73//5
f 80//7 101//7 72//7
f 111//5 49//5 102//5
f 101//8 73//8 72//8
f 98//5 48//5 103//5
f 70//5 104//5 105//5
f 69//5 101//5 70//5
f 101//7 80//7 104//7
f 107//5 106//5 105//5
f 110//6 67//6 107//6
f 67//6 66//6 106//6
f 23//5 108//5 105//5
f 22//7 56//7 23//7
f 56//7 55//7 108//7
f 99//6 109//6 18//6
f 110//6 107//6 99//6
f 107//5 105//5 109//5
