# Blender v2.71 (sub 0) OBJ File: ''
# www.blender.org
mtllib cornellbox_empty0.mtl
o Box_Cube
v -1.000000 -1.000000 -1.500000
v 1.000000 -1.000000 -1.500000
v 1.000000 1.000000 -1.500000
v 1.000000 -1.000000 1.500000
v -1.000000 -1.000000 1.500000
v -1.000000 1.000000 1.500000
v -1.000000 1.000000 -1.499791
v 1.000000 1.000000 -1.499791
v 1.000000 1.000000 1.499345
v -1.000000 1.000000 -1.500000
v 1.000000 1.000000 1.500000
v -1.000000 1.000000 1.499345
vn 0.000000 -0.000000 1.000000
vn 0.000000 0.000000 -1.000000
vn 0.000000 1.000000 0.000000
vn 0.000000 -1.000000 -0.000000
usemtl mat_diff_white
s off
f 1//1 2//1 3//1
f 4//2 5//2 6//2
f 2//3 1//3 4//3
f 7//4 8//4 9//4
f 10//1 1//1 3//1
f 11//2 4//2 6//2
f 4//3 1//3 5//3
f 12//4 7//4 9//4
o Wall1_Cube.002
v 1.000000 -1.000000 -1.500000
v 1.000000 -1.000000 1.500000
v 1.000000 1.000000 1.500000
v 1.000000 1.000000 -1.500000
vn -1.000000 0.000000 0.000000
usemtl mat_diff_blue
s off
f 13//5 14//5 15//5
f 16//5 13//5 15//5
o lamp_light_Cube.007
v -0.250000 0.950000 -0.250000
v 0.250000 0.950000 -0.250000
v 0.250000 0.950000 0.250000
v -0.250000 0.950000 0.250000
vn 0.000000 -1.000000 -0.000000
usemtl mat_lamp
s off
f 17//6 18//6 19//6
f 20//6 17//6 19//6
o Wall0_Cube.001
v -1.000000 -1.000000 1.500000
v -1.000000 -1.000000 -1.500000
v -1.000000 1.000000 -1.500000
v -1.000000 1.000000 1.500000
vn 1.000000 0.000000 0.000000
usemtl mat_diff_red
s off
f 21//7 22//7 23//7
f 24//7 21//7 23//7
o lamp_base_Cube.005
v -0.250000 1.000000 -0.250000
v -0.250000 0.950000 -0.250000
v -0.250000 0.950000 0.250000
v 0.250000 1.000000 -0.250000
v 0.250000 0.950000 -0.250000
v 0.250000 1.000000 0.250000
v 0.250000 0.950000 0.250000
v -0.250000 1.000000 0.250000
vn -1.000000 0.000000 0.000000
vn 0.000000 0.000000 -1.000000
vn 1.000000 0.000000 0.000000
vn 0.000000 0.000000 1.000000
usemtl mat_diff_white
s off
f 25//8 26//8 27//8
f 28//9 29//9 26//9
f 30//10 31//10 29//10
f 32//11 27//11 31//11
f 32//8 25//8 27//8
f 25//9 28//9 26//9
f 28//10 30//10 29//10
f 30//11 32//11 31//11
