# Blender v2.75 (sub 0) OBJ File: 'directional_light.blend'
# www.blender.org
mtllib directional_light.mtl
o Cylinder.003
v 0.000000 0.950000 -1.000000
v 0.195090 0.950000 -0.980785
v 0.382683 0.950000 -0.923880
v 0.555570 0.950000 -0.831470
v 0.707107 0.950000 -0.707107
v 0.831470 0.950000 -0.555570
v 0.923880 0.950000 -0.382683
v 0.980785 0.950000 -0.195090
v 1.000000 0.950000 -0.000000
v 0.980785 0.950000 0.195090
v 0.923880 0.950000 0.382683
v 0.831470 0.950000 0.555570
v 0.707107 0.950000 0.707107
v 0.555570 0.950000 0.831470
v 0.382683 0.950000 0.923880
v 0.195090 0.950000 0.980785
v -0.000000 0.950000 1.000000
v -0.195091 0.950000 0.980785
v -0.382684 0.950000 0.923879
v -0.555571 0.950000 0.831469
v -0.707107 0.950000 0.707106
v -0.831470 0.950000 0.555570
v -0.923880 0.950000 0.382683
v -0.980785 0.950000 0.195089
v -1.000000 0.950000 -0.000001
v -0.980785 0.950000 -0.195091
v -0.923879 0.950000 -0.382684
v -0.831469 0.950000 -0.555571
v -0.707106 0.950000 -0.707108
v -0.555569 0.950000 -0.831470
v -0.382682 0.950000 -0.923880
v -0.195089 0.950000 -0.980786
vn 0.000000 1.000000 0.000000
usemtl case
s off
f 10//1 26//1 18//1
f 4//1 3//1 2//1
f 2//1 5//1 4//1
f 10//1 7//1 6//1
f 10//1 9//1 8//1
f 12//1 11//1 10//1
f 14//1 13//1 12//1
f 16//1 15//1 14//1
f 18//1 17//1 16//1
f 22//1 19//1 18//1
f 22//1 21//1 20//1
f 24//1 23//1 22//1
f 26//1 25//1 24//1
f 30//1 27//1 26//1
f 30//1 29//1 28//1
f 32//1 31//1 30//1
f 2//1 1//1 32//1
f 6//1 5//1 2//1
f 10//1 8//1 7//1
f 18//1 12//1 10//1
f 18//1 16//1 14//1
f 22//1 20//1 19//1
f 26//1 24//1 22//1
f 30//1 28//1 27//1
f 2//1 32//1 30//1
f 10//1 6//1 2//1
f 18//1 14//1 12//1
f 26//1 22//1 18//1
f 2//1 30//1 26//1
f 26//1 10//1 2//1
o Cylinder.002
v 0.000000 0.850000 -0.950000
v 0.185336 0.850000 -0.931746
v 0.363549 0.850000 -0.877685
v 0.527792 0.850000 -0.789896
v 0.671751 0.850000 -0.671751
v 0.789896 0.850000 -0.527792
v 0.877685 0.850000 -0.363549
v 0.931746 0.850000 -0.185336
v 0.950000 0.850000 -0.000000
v 0.931746 0.850000 0.185336
v 0.877686 0.850000 0.363549
v 0.789896 0.850000 0.527792
v 0.671751 0.850000 0.671751
v 0.527792 0.850000 0.789896
v 0.363549 0.850000 0.877686
v 0.185336 0.850000 0.931746
v -0.000000 0.850000 0.950000
v -0.185336 0.850000 0.931746
v -0.363550 0.850000 0.877685
v -0.527792 0.850000 0.789896
v -0.671752 0.850000 0.671751
v -0.789896 0.850000 0.527791
v -0.877686 0.850000 0.363549
v -0.931746 0.850000 0.185335
v -0.950000 0.850000 -0.000001
v -0.931746 0.850000 -0.185337
v -0.877685 0.850000 -0.363550
v -0.789895 0.850000 -0.527793
v -0.671751 0.850000 -0.671752
v -0.527791 0.850000 -0.789897
v -0.363548 0.850000 -0.877686
v -0.185334 0.850000 -0.931746
vn 0.000000 -1.000000 0.000000
usemtl lamp
s off
f 34//2 42//2 50//2
f 64//2 33//2 34//2
f 62//2 63//2 64//2
f 60//2 61//2 62//2
f 62//2 59//2 60//2
f 56//2 57//2 58//2
f 54//2 55//2 56//2
f 52//2 53//2 54//2
f 54//2 51//2 52//2
f 48//2 49//2 50//2
f 46//2 47//2 48//2
f 42//2 45//2 46//2
f 42//2 43//2 44//2
f 40//2 41//2 42//2
f 38//2 39//2 40//2
f 34//2 37//2 38//2
f 34//2 35//2 36//2
f 62//2 64//2 34//2
f 58//2 59//2 62//2
f 54//2 56//2 58//2
f 50//2 51//2 54//2
f 42//2 48//2 50//2
f 42//2 44//2 45//2
f 38//2 40//2 42//2
f 34//2 36//2 37//2
f 58//2 62//2 34//2
f 50//2 54//2 58//2
f 42//2 46//2 48//2
f 34//2 38//2 42//2
f 50//2 58//2 34//2
o Cylinder.001
v 0.000000 1.000000 -1.000000
v 0.195090 1.000000 -0.980785
v 0.382683 1.000000 -0.923880
v 0.555570 1.000000 -0.831470
v 0.707107 1.000000 -0.707107
v 0.831470 1.000000 -0.555570
v 0.923880 1.000000 -0.382683
v 0.980785 1.000000 -0.195090
v 1.000000 1.000000 -0.000000
v 0.980785 1.000000 0.195090
v 0.923880 1.000000 0.382683
v 0.831470 1.000000 0.555570
v 0.707107 1.000000 0.707107
v 0.555570 1.000000 0.831470
v 0.382683 1.000000 0.923880
v 0.195090 1.000000 0.980785
v -0.000000 1.000000 1.000000
v -0.195091 1.000000 0.980785
v -0.382684 1.000000 0.923879
v -0.555571 1.000000 0.831469
v -0.707107 1.000000 0.707106
v -0.831470 1.000000 0.555570
v -0.923880 1.000000 0.382683
v -0.980785 1.000000 0.195089
v -1.000000 1.000000 -0.000001
v -0.980785 1.000000 -0.195091
v -0.923879 1.000000 -0.382684
v -0.831469 1.000000 -0.555571
v -0.707106 1.000000 -0.707108
v -0.555569 1.000000 -0.831470
v -0.382682 1.000000 -0.923880
v -0.195089 1.000000 -0.980786
vn 0.000000 1.000000 0.000000
usemtl case
s off
f 74//3 90//3 82//3
f 68//3 67//3 66//3
f 66//3 69//3 68//3
f 74//3 71//3 70//3
f 74//3 73//3 72//3
f 76//3 75//3 74//3
f 78//3 77//3 76//3
f 80//3 79//3 78//3
f 82//3 81//3 80//3
f 86//3 83//3 82//3
f 86//3 85//3 84//3
f 88//3 87//3 86//3
f 90//3 89//3 88//3
f 94//3 91//3 90//3
f 94//3 93//3 92//3
f 96//3 95//3 94//3
f 66//3 65//3 96//3
f 70//3 69//3 66//3
f 74//3 72//3 71//3
f 82//3 76//3 74//3
f 82//3 80//3 78//3
f 86//3 84//3 83//3
f 90//3 88//3 86//3
f 94//3 92//3 91//3
f 66//3 96//3 94//3
f 74//3 70//3 66//3
f 82//3 78//3 76//3
f 90//3 86//3 82//3
f 66//3 94//3 90//3
f 90//3 74//3 66//3
o Cylinder
v 0.000000 -1.000000 -1.000000
v 0.000000 1.000000 -1.000000
v 0.195090 -1.000000 -0.980785
v 0.195090 1.000000 -0.980785
v 0.382683 -1.000000 -0.923880
v 0.382683 1.000000 -0.923880
v 0.555570 -1.000000 -0.831470
v 0.555570 1.000000 -0.831470
v 0.707107 -1.000000 -0.707107
v 0.707107 1.000000 -0.707107
v 0.831470 -1.000000 -0.555570
v 0.831470 1.000000 -0.555570
v 0.923880 -1.000000 -0.382683
v 0.923880 1.000000 -0.382683
v 0.980785 -1.000000 -0.195090
v 0.980785 1.000000 -0.195090
v 1.000000 -1.000000 -0.000000
v 1.000000 1.000000 -0.000000
v 0.980785 -1.000000 0.195090
v 0.980785 1.000000 0.195090
v 0.923880 -1.000000 0.382683
v 0.923880 1.000000 0.382683
v 0.831470 -1.000000 0.555570
v 0.831470 1.000000 0.555570
v 0.707107 -1.000000 0.707107
v 0.707107 1.000000 0.707107
v 0.555570 -1.000000 0.831470
v 0.555570 1.000000 0.831470
v 0.382683 -1.000000 0.923880
v 0.382683 1.000000 0.923880
v 0.195090 -1.000000 0.980785
v 0.195090 1.000000 0.980785
v -0.000000 -1.000000 1.000000
v -0.000000 1.000000 1.000000
v -0.195091 -1.000000 0.980785
v -0.195091 1.000000 0.980785
v -0.382684 -1.000000 0.923879
v -0.382684 1.000000 0.923879
v -0.555571 -1.000000 0.831469
v -0.555571 1.000000 0.831469
v -0.707107 -1.000000 0.707106
v -0.707107 1.000000 0.707106
v -0.831470 -1.000000 0.555570
v -0.831470 1.000000 0.555570
v -0.923880 -1.000000 0.382683
v -0.923880 1.000000 0.382683
v -0.980785 -1.000000 0.195089
v -0.980785 1.000000 0.195089
v -1.000000 -1.000000 -0.000001
v -1.000000 1.000000 -0.000001
v -0.980785 -1.000000 -0.195091
v -0.980785 1.000000 -0.195091
v -0.923879 -1.000000 -0.382684
v -0.923879 1.000000 -0.382684
v -0.831469 -1.000000 -0.555571
v -0.831469 1.000000 -0.555571
v -0.707106 -1.000000 -0.707108
v -0.707106 1.000000 -0.707108
v -0.555569 -1.000000 -0.831470
v -0.555569 1.000000 -0.831470
v -0.382682 -1.000000 -0.923880
v -0.382682 1.000000 -0.923880
v -0.195089 -1.000000 -0.980786
v -0.195089 1.000000 -0.980786
vn 0.000000 0.000000 -1.000000
vn 0.195100 0.000000 -0.980800
vn 0.382700 0.000000 -0.923900
vn 0.555600 0.000000 -0.831400
vn 0.707100 0.000000 -0.707100
vn 0.831400 0.000000 -0.555600
vn 0.923900 0.000000 -0.382700
vn 0.980800 0.000000 -0.195100
vn 1.000000 0.000000 0.000000
vn 0.980800 0.000000 0.195100
vn 0.923900 0.000000 0.382700
vn 0.831400 0.000000 0.555600
vn 0.707100 0.000000 0.707100
vn 0.555600 0.000000 0.831400
vn 0.382700 0.000000 0.923900
vn 0.195100 0.000000 0.980800
vn 0.000000 0.000000 1.000000
vn -0.195100 0.000000 0.980800
vn -0.382700 0.000000 0.923900
vn -0.555600 0.000000 0.831400
vn -0.707100 0.000000 0.707100
vn -0.831400 0.000000 0.555600
vn -0.923900 0.000000 0.382700
vn -0.980800 0.000000 0.195100
vn -1.000000 0.000000 0.000000
vn -0.980800 0.000000 -0.195100
vn -0.923900 0.000000 -0.382700
vn -0.831400 0.000000 -0.555600
vn -0.707100 0.000000 -0.707100
vn -0.555600 0.000000 -0.831400
vn -0.382700 0.000000 -0.923900
vn -0.195100 0.000000 -0.980800
usemtl case
s 1
f 98//4 100//5 99//5
f 100//5 102//6 101//6
f 102//6 104//7 103//7
f 104//7 106//8 105//8
f 106//8 108//9 107//9
f 108//9 110//10 109//10
f 110//10 112//11 111//11
f 112//11 114//12 113//12
f 114//12 116//13 115//13
f 116//13 118//14 117//14
f 118//14 120//15 119//15
f 120//15 122//16 121//16
f 122//16 124//17 123//17
f 124//17 126//18 125//18
f 126//18 128//19 127//19
f 128//19 130//20 129//20
f 130//20 132//21 131//21
f 132//21 134//22 133//22
f 134//22 136//23 135//23
f 136//23 138//24 137//24
f 138//24 140//25 139//25
f 140//25 142//26 141//26
f 142//26 144//27 143//27
f 144//27 146//28 145//28
f 146//28 148//29 147//29
f 148//29 150//30 149//30
f 150//30 152//31 151//31
f 152//31 154//32 153//32
f 154//32 156//33 155//33
f 156//33 158//34 157//34
f 160//35 98//4 97//4
f 158//34 160//35 159//35
f 97//4 98//4 99//5
f 99//5 100//5 101//6
f 101//6 102//6 103//7
f 103//7 104//7 105//8
f 105//8 106//8 107//9
f 107//9 108//9 109//10
f 109//10 110//10 111//11
f 111//11 112//11 113//12
f 113//12 114//12 115//13
f 115//13 116//13 117//14
f 117//14 118//14 119//15
f 119//15 120//15 121//16
f 121//16 122//16 123//17
f 123//17 124//17 125//18
f 125//18 126//18 127//19
f 127//19 128//19 129//20
f 129//20 130//20 131//21
f 131//21 132//21 133//22
f 133//22 134//22 135//23
f 135//23 136//23 137//24
f 137//24 138//24 139//25
f 139//25 140//25 141//26
f 141//26 142//26 143//27
f 143//27 144//27 145//28
f 145//28 146//28 147//29
f 147//29 148//29 149//30
f 149//30 150//30 151//31
f 151//31 152//31 153//32
f 153//32 154//32 155//33
f 155//33 156//33 157//34
f 159//35 160//35 97//4
f 157//34 158//34 159//35
